<mxfile host="Electron" modified="2024-12-18T20:38:58.333Z" agent="Mozilla/5.0 (Windows NT 10.0; Win64; x64) AppleWebKit/537.36 (KHTML, like Gecko) draw.io/24.6.1 Chrome/124.0.6367.207 Electron/30.0.6 Safari/537.36" etag="sOVIdKoAkocIJv9Sg1fV" version="24.6.1" type="device">
  <diagram id="C5RBs43oDa-KdzZeNtuy" name="Page-1">
    <mxGraphModel dx="1036" dy="606" grid="1" gridSize="10" guides="1" tooltips="1" connect="1" arrows="1" fold="1" page="1" pageScale="1" pageWidth="827" pageHeight="1169" math="0" shadow="0">
      <root>
        <mxCell id="WIyWlLk6GJQsqaUBKTNV-0" />
        <mxCell id="WIyWlLk6GJQsqaUBKTNV-1" parent="WIyWlLk6GJQsqaUBKTNV-0" />
        <mxCell id="QtcHQ-sLmvnBHA9ZWGMS-10" value="GIF_Window" style="swimlane;fontStyle=1;align=center;verticalAlign=top;childLayout=stackLayout;horizontal=1;startSize=26;horizontalStack=0;resizeParent=1;resizeParentMax=0;resizeLast=0;collapsible=1;marginBottom=0;whiteSpace=wrap;html=1;" vertex="1" parent="WIyWlLk6GJQsqaUBKTNV-1">
          <mxGeometry x="470" y="210" width="180" height="100" as="geometry" />
        </mxCell>
        <mxCell id="QtcHQ-sLmvnBHA9ZWGMS-11" value="- timer: QTimer" style="text;strokeColor=none;fillColor=none;align=left;verticalAlign=top;spacingLeft=4;spacingRight=4;overflow=hidden;rotatable=0;points=[[0,0.5],[1,0.5]];portConstraint=eastwest;whiteSpace=wrap;html=1;" vertex="1" parent="QtcHQ-sLmvnBHA9ZWGMS-10">
          <mxGeometry y="26" width="180" height="26" as="geometry" />
        </mxCell>
        <mxCell id="QtcHQ-sLmvnBHA9ZWGMS-12" value="" style="line;strokeWidth=1;fillColor=none;align=left;verticalAlign=middle;spacingTop=-1;spacingLeft=3;spacingRight=3;rotatable=0;labelPosition=right;points=[];portConstraint=eastwest;strokeColor=inherit;" vertex="1" parent="QtcHQ-sLmvnBHA9ZWGMS-10">
          <mxGeometry y="52" width="180" height="8" as="geometry" />
        </mxCell>
        <mxCell id="QtcHQ-sLmvnBHA9ZWGMS-13" value="+ __init__&lt;div&gt;+ start_timer(callback, duration)&lt;/div&gt;" style="text;strokeColor=none;fillColor=none;align=left;verticalAlign=top;spacingLeft=4;spacingRight=4;overflow=hidden;rotatable=0;points=[[0,0.5],[1,0.5]];portConstraint=eastwest;whiteSpace=wrap;html=1;" vertex="1" parent="QtcHQ-sLmvnBHA9ZWGMS-10">
          <mxGeometry y="60" width="180" height="40" as="geometry" />
        </mxCell>
        <mxCell id="QtcHQ-sLmvnBHA9ZWGMS-16" value="Ui_MainWindow" style="swimlane;fontStyle=0;childLayout=stackLayout;horizontal=1;startSize=26;fillColor=none;horizontalStack=0;resizeParent=1;resizeParentMax=0;resizeLast=0;collapsible=1;marginBottom=0;whiteSpace=wrap;html=1;" vertex="1" parent="WIyWlLk6GJQsqaUBKTNV-1">
          <mxGeometry x="450" y="70" width="170" height="78" as="geometry" />
        </mxCell>
        <mxCell id="QtcHQ-sLmvnBHA9ZWGMS-17" value="+ setupUi(MainWindow)" style="text;strokeColor=none;fillColor=none;align=left;verticalAlign=top;spacingLeft=4;spacingRight=4;overflow=hidden;rotatable=0;points=[[0,0.5],[1,0.5]];portConstraint=eastwest;whiteSpace=wrap;html=1;" vertex="1" parent="QtcHQ-sLmvnBHA9ZWGMS-16">
          <mxGeometry y="26" width="170" height="26" as="geometry" />
        </mxCell>
        <mxCell id="QtcHQ-sLmvnBHA9ZWGMS-18" value="+ retranslateUi(MainWindow)" style="text;strokeColor=none;fillColor=none;align=left;verticalAlign=top;spacingLeft=4;spacingRight=4;overflow=hidden;rotatable=0;points=[[0,0.5],[1,0.5]];portConstraint=eastwest;whiteSpace=wrap;html=1;" vertex="1" parent="QtcHQ-sLmvnBHA9ZWGMS-16">
          <mxGeometry y="52" width="170" height="26" as="geometry" />
        </mxCell>
        <mxCell id="QtcHQ-sLmvnBHA9ZWGMS-19" value="Ui_MainWindow" style="swimlane;fontStyle=0;childLayout=stackLayout;horizontal=1;startSize=26;fillColor=none;horizontalStack=0;resizeParent=1;resizeParentMax=0;resizeLast=0;collapsible=1;marginBottom=0;whiteSpace=wrap;html=1;" vertex="1" parent="WIyWlLk6GJQsqaUBKTNV-1">
          <mxGeometry x="770" y="332" width="170" height="78" as="geometry" />
        </mxCell>
        <mxCell id="QtcHQ-sLmvnBHA9ZWGMS-20" value="+ setupUi(MainWindow)" style="text;strokeColor=none;fillColor=none;align=left;verticalAlign=top;spacingLeft=4;spacingRight=4;overflow=hidden;rotatable=0;points=[[0,0.5],[1,0.5]];portConstraint=eastwest;whiteSpace=wrap;html=1;" vertex="1" parent="QtcHQ-sLmvnBHA9ZWGMS-19">
          <mxGeometry y="26" width="170" height="26" as="geometry" />
        </mxCell>
        <mxCell id="QtcHQ-sLmvnBHA9ZWGMS-21" value="+ retranslateUi(MainWindow)" style="text;strokeColor=none;fillColor=none;align=left;verticalAlign=top;spacingLeft=4;spacingRight=4;overflow=hidden;rotatable=0;points=[[0,0.5],[1,0.5]];portConstraint=eastwest;whiteSpace=wrap;html=1;" vertex="1" parent="QtcHQ-sLmvnBHA9ZWGMS-19">
          <mxGeometry y="52" width="170" height="26" as="geometry" />
        </mxCell>
        <mxCell id="QtcHQ-sLmvnBHA9ZWGMS-24" style="edgeStyle=orthogonalEdgeStyle;rounded=0;orthogonalLoop=1;jettySize=auto;html=1;exitX=0.5;exitY=0;exitDx=0;exitDy=0;entryX=0.442;entryY=1.023;entryDx=0;entryDy=0;entryPerimeter=0;endArrow=block;endFill=0;" edge="1" parent="WIyWlLk6GJQsqaUBKTNV-1" source="QtcHQ-sLmvnBHA9ZWGMS-10" target="QtcHQ-sLmvnBHA9ZWGMS-18">
          <mxGeometry relative="1" as="geometry" />
        </mxCell>
        <mxCell id="QtcHQ-sLmvnBHA9ZWGMS-25" value="Ui_Dialog" style="swimlane;fontStyle=0;childLayout=stackLayout;horizontal=1;startSize=26;fillColor=none;horizontalStack=0;resizeParent=1;resizeParentMax=0;resizeLast=0;collapsible=1;marginBottom=0;whiteSpace=wrap;html=1;" vertex="1" parent="WIyWlLk6GJQsqaUBKTNV-1">
          <mxGeometry x="970" y="500" width="170" height="78" as="geometry" />
        </mxCell>
        <mxCell id="QtcHQ-sLmvnBHA9ZWGMS-26" value="+ setupUi(Dialog)" style="text;strokeColor=none;fillColor=none;align=left;verticalAlign=top;spacingLeft=4;spacingRight=4;overflow=hidden;rotatable=0;points=[[0,0.5],[1,0.5]];portConstraint=eastwest;whiteSpace=wrap;html=1;" vertex="1" parent="QtcHQ-sLmvnBHA9ZWGMS-25">
          <mxGeometry y="26" width="170" height="26" as="geometry" />
        </mxCell>
        <mxCell id="QtcHQ-sLmvnBHA9ZWGMS-27" value="+ retranslateUi(Dialog)" style="text;strokeColor=none;fillColor=none;align=left;verticalAlign=top;spacingLeft=4;spacingRight=4;overflow=hidden;rotatable=0;points=[[0,0.5],[1,0.5]];portConstraint=eastwest;whiteSpace=wrap;html=1;" vertex="1" parent="QtcHQ-sLmvnBHA9ZWGMS-25">
          <mxGeometry y="52" width="170" height="26" as="geometry" />
        </mxCell>
        <mxCell id="QtcHQ-sLmvnBHA9ZWGMS-28" value="Data" style="swimlane;fontStyle=1;align=center;verticalAlign=top;childLayout=stackLayout;horizontal=1;startSize=26;horizontalStack=0;resizeParent=1;resizeParentMax=0;resizeLast=0;collapsible=1;marginBottom=0;whiteSpace=wrap;html=1;" vertex="1" parent="WIyWlLk6GJQsqaUBKTNV-1">
          <mxGeometry x="80" y="550" width="160" height="330" as="geometry" />
        </mxCell>
        <mxCell id="QtcHQ-sLmvnBHA9ZWGMS-29" value="- db: QSplDataBase" style="text;strokeColor=none;fillColor=none;align=left;verticalAlign=top;spacingLeft=4;spacingRight=4;overflow=hidden;rotatable=0;points=[[0,0.5],[1,0.5]];portConstraint=eastwest;whiteSpace=wrap;html=1;" vertex="1" parent="QtcHQ-sLmvnBHA9ZWGMS-28">
          <mxGeometry y="26" width="160" height="26" as="geometry" />
        </mxCell>
        <mxCell id="QtcHQ-sLmvnBHA9ZWGMS-30" value="" style="line;strokeWidth=1;fillColor=none;align=left;verticalAlign=middle;spacingTop=-1;spacingLeft=3;spacingRight=3;rotatable=0;labelPosition=right;points=[];portConstraint=eastwest;strokeColor=inherit;" vertex="1" parent="QtcHQ-sLmvnBHA9ZWGMS-28">
          <mxGeometry y="52" width="160" height="8" as="geometry" />
        </mxCell>
        <mxCell id="QtcHQ-sLmvnBHA9ZWGMS-31" value="+ __init__()&lt;div&gt;+ connection()&lt;/div&gt;&lt;div&gt;+ create_query(sql_query: str, sql_query_values: list)&lt;/div&gt;&lt;div&gt;+ add_new_order(client: str, device: str, service: str, status: str, price: str, date: str, phone_number: str, master: str)&lt;/div&gt;&lt;div&gt;+ edit_order(client: str, device: str, service: str, status: str, price: str, date: str, phone_number: str, master: str, id: int)&lt;br&gt;&lt;/div&gt;&lt;div&gt;+ delete_order(id: int)&lt;/div&gt;&lt;div&gt;+ get_change(id: int)&lt;/div&gt;" style="text;strokeColor=none;fillColor=none;align=left;verticalAlign=top;spacingLeft=4;spacingRight=4;overflow=hidden;rotatable=0;points=[[0,0.5],[1,0.5]];portConstraint=eastwest;whiteSpace=wrap;html=1;" vertex="1" parent="QtcHQ-sLmvnBHA9ZWGMS-28">
          <mxGeometry y="60" width="160" height="270" as="geometry" />
        </mxCell>
        <mxCell id="QtcHQ-sLmvnBHA9ZWGMS-36" value="CenteredSqlTableModel" style="swimlane;fontStyle=0;childLayout=stackLayout;horizontal=1;startSize=26;fillColor=none;horizontalStack=0;resizeParent=1;resizeParentMax=0;resizeLast=0;collapsible=1;marginBottom=0;whiteSpace=wrap;html=1;" vertex="1" parent="WIyWlLk6GJQsqaUBKTNV-1">
          <mxGeometry x="330" y="410" width="230" height="70" as="geometry" />
        </mxCell>
        <mxCell id="QtcHQ-sLmvnBHA9ZWGMS-37" value="+ data(index: QModelIndex, role: int)" style="text;strokeColor=none;fillColor=none;align=left;verticalAlign=top;spacingLeft=4;spacingRight=4;overflow=hidden;rotatable=0;points=[[0,0.5],[1,0.5]];portConstraint=eastwest;whiteSpace=wrap;html=1;" vertex="1" parent="QtcHQ-sLmvnBHA9ZWGMS-36">
          <mxGeometry y="26" width="230" height="44" as="geometry" />
        </mxCell>
        <mxCell id="QtcHQ-sLmvnBHA9ZWGMS-40" value="&lt;span style=&quot;font-weight: 400;&quot;&gt;CustomFilterProxyModel&lt;/span&gt;" style="swimlane;fontStyle=1;align=center;verticalAlign=top;childLayout=stackLayout;horizontal=1;startSize=26;horizontalStack=0;resizeParent=1;resizeParentMax=0;resizeLast=0;collapsible=1;marginBottom=0;whiteSpace=wrap;html=1;" vertex="1" parent="WIyWlLk6GJQsqaUBKTNV-1">
          <mxGeometry x="280" y="510" width="180" height="160" as="geometry" />
        </mxCell>
        <mxCell id="QtcHQ-sLmvnBHA9ZWGMS-42" value="" style="line;strokeWidth=1;fillColor=none;align=left;verticalAlign=middle;spacingTop=-1;spacingLeft=3;spacingRight=3;rotatable=0;labelPosition=right;points=[];portConstraint=eastwest;strokeColor=inherit;" vertex="1" parent="QtcHQ-sLmvnBHA9ZWGMS-40">
          <mxGeometry y="26" width="180" height="8" as="geometry" />
        </mxCell>
        <mxCell id="QtcHQ-sLmvnBHA9ZWGMS-41" value="- filters: dict" style="text;strokeColor=none;fillColor=none;align=left;verticalAlign=top;spacingLeft=4;spacingRight=4;overflow=hidden;rotatable=0;points=[[0,0.5],[1,0.5]];portConstraint=eastwest;whiteSpace=wrap;html=1;" vertex="1" parent="QtcHQ-sLmvnBHA9ZWGMS-40">
          <mxGeometry y="34" width="180" height="26" as="geometry" />
        </mxCell>
        <mxCell id="QtcHQ-sLmvnBHA9ZWGMS-43" value="+ __init__()&lt;div&gt;+ set_filters(column: int, value: str)&lt;/div&gt;&lt;div&gt;+ filterAcceptsRow(source_row: int, source_parent: QModelIndex)&lt;/div&gt;" style="text;strokeColor=none;fillColor=none;align=left;verticalAlign=top;spacingLeft=4;spacingRight=4;overflow=hidden;rotatable=0;points=[[0,0.5],[1,0.5]];portConstraint=eastwest;whiteSpace=wrap;html=1;" vertex="1" parent="QtcHQ-sLmvnBHA9ZWGMS-40">
          <mxGeometry y="60" width="180" height="100" as="geometry" />
        </mxCell>
        <mxCell id="QtcHQ-sLmvnBHA9ZWGMS-49" style="edgeStyle=orthogonalEdgeStyle;rounded=0;orthogonalLoop=1;jettySize=auto;html=1;entryX=1;entryY=0.5;entryDx=0;entryDy=0;endArrow=none;endFill=0;startArrow=classic;startFill=1;" edge="1" parent="WIyWlLk6GJQsqaUBKTNV-1" source="QtcHQ-sLmvnBHA9ZWGMS-44" target="QtcHQ-sLmvnBHA9ZWGMS-43">
          <mxGeometry relative="1" as="geometry" />
        </mxCell>
        <mxCell id="QtcHQ-sLmvnBHA9ZWGMS-56" style="edgeStyle=orthogonalEdgeStyle;rounded=0;orthogonalLoop=1;jettySize=auto;html=1;endArrow=block;endFill=0;entryX=0.732;entryY=0.977;entryDx=0;entryDy=0;entryPerimeter=0;exitX=0.5;exitY=0;exitDx=0;exitDy=0;" edge="1" parent="WIyWlLk6GJQsqaUBKTNV-1" source="QtcHQ-sLmvnBHA9ZWGMS-44" target="QtcHQ-sLmvnBHA9ZWGMS-21">
          <mxGeometry relative="1" as="geometry">
            <mxPoint x="765" y="410" as="targetPoint" />
            <mxPoint x="770" y="490" as="sourcePoint" />
          </mxGeometry>
        </mxCell>
        <mxCell id="QtcHQ-sLmvnBHA9ZWGMS-44" value="GrodnoLaptop" style="swimlane;fontStyle=1;align=center;verticalAlign=top;childLayout=stackLayout;horizontal=1;startSize=26;horizontalStack=0;resizeParent=1;resizeParentMax=0;resizeLast=0;collapsible=1;marginBottom=0;whiteSpace=wrap;html=1;" vertex="1" parent="WIyWlLk6GJQsqaUBKTNV-1">
          <mxGeometry x="630" y="500" width="270" height="330" as="geometry" />
        </mxCell>
        <mxCell id="QtcHQ-sLmvnBHA9ZWGMS-45" value="- ui: Ui_MainWindow&lt;div&gt;- con: Data&lt;/div&gt;&lt;div&gt;- path: str&lt;/div&gt;&lt;div&gt;- model: CenteredSqlTableModel&lt;/div&gt;&lt;div&gt;- proxy_model: CustomFilterProxyModel&lt;/div&gt;&lt;div&gt;-filters: dict&lt;/div&gt;" style="text;strokeColor=none;fillColor=none;align=left;verticalAlign=top;spacingLeft=4;spacingRight=4;overflow=hidden;rotatable=0;points=[[0,0.5],[1,0.5]];portConstraint=eastwest;whiteSpace=wrap;html=1;" vertex="1" parent="QtcHQ-sLmvnBHA9ZWGMS-44">
          <mxGeometry y="26" width="270" height="104" as="geometry" />
        </mxCell>
        <mxCell id="QtcHQ-sLmvnBHA9ZWGMS-46" value="" style="line;strokeWidth=1;fillColor=none;align=left;verticalAlign=middle;spacingTop=-1;spacingLeft=3;spacingRight=3;rotatable=0;labelPosition=right;points=[];portConstraint=eastwest;strokeColor=inherit;" vertex="1" parent="QtcHQ-sLmvnBHA9ZWGMS-44">
          <mxGeometry y="130" width="270" height="8" as="geometry" />
        </mxCell>
        <mxCell id="QtcHQ-sLmvnBHA9ZWGMS-47" value="+ __init__()&lt;div&gt;+ view_table()&lt;/div&gt;&lt;div&gt;+ apply_filter()&lt;/div&gt;&lt;div&gt;+ delete_filter()&lt;/div&gt;&lt;div&gt;+ new_order_window()&lt;/div&gt;&lt;div&gt;+ index()&lt;/div&gt;&lt;div&gt;+ add_order()&lt;/div&gt;&lt;div&gt;+ edit_selected_order()&lt;/div&gt;&lt;div&gt;+ delete_selected_order()&lt;/div&gt;&lt;div&gt;+ export_to_excel_with_pandas(table_view: QTableView, path: str)&lt;/div&gt;&lt;div&gt;+ open_manual()&lt;/div&gt;" style="text;strokeColor=none;fillColor=none;align=left;verticalAlign=top;spacingLeft=4;spacingRight=4;overflow=hidden;rotatable=0;points=[[0,0.5],[1,0.5]];portConstraint=eastwest;whiteSpace=wrap;html=1;" vertex="1" parent="QtcHQ-sLmvnBHA9ZWGMS-44">
          <mxGeometry y="138" width="270" height="192" as="geometry" />
        </mxCell>
        <mxCell id="QtcHQ-sLmvnBHA9ZWGMS-48" style="edgeStyle=orthogonalEdgeStyle;rounded=0;orthogonalLoop=1;jettySize=auto;html=1;entryX=0.99;entryY=0.457;entryDx=0;entryDy=0;entryPerimeter=0;endArrow=classic;endFill=1;dashed=1;" edge="1" parent="WIyWlLk6GJQsqaUBKTNV-1" source="QtcHQ-sLmvnBHA9ZWGMS-47" target="QtcHQ-sLmvnBHA9ZWGMS-31">
          <mxGeometry relative="1" as="geometry" />
        </mxCell>
        <mxCell id="QtcHQ-sLmvnBHA9ZWGMS-51" style="edgeStyle=orthogonalEdgeStyle;rounded=0;orthogonalLoop=1;jettySize=auto;html=1;exitX=0;exitY=0.5;exitDx=0;exitDy=0;entryX=1;entryY=0.5;entryDx=0;entryDy=0;endArrow=none;endFill=0;startArrow=classic;startFill=1;" edge="1" parent="WIyWlLk6GJQsqaUBKTNV-1" source="QtcHQ-sLmvnBHA9ZWGMS-45" target="QtcHQ-sLmvnBHA9ZWGMS-37">
          <mxGeometry relative="1" as="geometry" />
        </mxCell>
        <mxCell id="QtcHQ-sLmvnBHA9ZWGMS-52" style="edgeStyle=orthogonalEdgeStyle;rounded=0;orthogonalLoop=1;jettySize=auto;html=1;entryX=0;entryY=0.5;entryDx=0;entryDy=0;endArrow=diamondThin;endFill=1;" edge="1" parent="WIyWlLk6GJQsqaUBKTNV-1" source="QtcHQ-sLmvnBHA9ZWGMS-45" target="QtcHQ-sLmvnBHA9ZWGMS-26">
          <mxGeometry relative="1" as="geometry" />
        </mxCell>
        <mxCell id="QtcHQ-sLmvnBHA9ZWGMS-58" style="edgeStyle=orthogonalEdgeStyle;rounded=0;orthogonalLoop=1;jettySize=auto;html=1;entryX=0.301;entryY=-0.01;entryDx=0;entryDy=0;entryPerimeter=0;startArrow=classic;startFill=1;endArrow=none;endFill=0;" edge="1" parent="WIyWlLk6GJQsqaUBKTNV-1" source="QtcHQ-sLmvnBHA9ZWGMS-10" target="QtcHQ-sLmvnBHA9ZWGMS-44">
          <mxGeometry relative="1" as="geometry" />
        </mxCell>
        <mxCell id="QtcHQ-sLmvnBHA9ZWGMS-59" value="1" style="text;html=1;align=center;verticalAlign=middle;whiteSpace=wrap;rounded=0;" vertex="1" parent="WIyWlLk6GJQsqaUBKTNV-1">
          <mxGeometry x="560" y="310" width="30" height="30" as="geometry" />
        </mxCell>
        <mxCell id="QtcHQ-sLmvnBHA9ZWGMS-60" value="1" style="text;html=1;align=center;verticalAlign=middle;whiteSpace=wrap;rounded=0;" vertex="1" parent="WIyWlLk6GJQsqaUBKTNV-1">
          <mxGeometry x="690" y="470" width="30" height="30" as="geometry" />
        </mxCell>
      </root>
    </mxGraphModel>
  </diagram>
</mxfile>
